<svg width="32" height="32" viewBox="0 0 32 32" fill="none" xmlns="http://www.w3.org/2000/svg">
<g clip-path="url(#clip0_260_46)">
<path d="M16 32C24.8366 32 32 24.8366 32 16C32 7.16344 24.8366 0 16 0C7.16344 0 0 7.16344 0 16C0 24.8366 7.16344 32 16 32Z" fill="#3C4765"/>
<path d="M19.1787 8.65283H12.3179C10.2144 8.65283 8.49493 10.4107 8.49493 12.5568V19.2512C8.49493 21.3974 10.2144 23.1552 12.3179 23.1552H19.1787C21.2821 23.1552 23.0016 21.3974 23.0016 19.2512V12.5568C23.0016 10.4107 21.2821 8.65283 19.1787 8.65283ZM21.7045 19.1574C21.7045 20.6464 20.5141 21.8624 19.0592 21.8624H12.4459C10.9909 21.8624 9.80053 20.6464 9.80053 19.1574V12.655C9.80053 11.1659 10.9909 9.9499 12.4459 9.9499H19.0592C20.5141 9.9499 21.7045 11.1659 21.7045 12.655V19.1574Z" fill="#F5ECE5"/>
<path d="M15.7483 12.1812C13.7344 12.1812 12.1003 13.8494 12.1003 15.906C12.1003 17.9625 13.7344 19.6308 15.7483 19.6308C17.7621 19.6308 19.3963 17.9625 19.3963 15.906C19.3963 13.8494 17.7621 12.1812 15.7483 12.1812ZM15.7483 18.3081C14.4469 18.3081 13.3973 17.2329 13.3973 15.906C13.3973 14.579 14.4512 13.5038 15.7525 13.5038C17.0539 13.5038 18.1035 14.579 18.1035 15.906C18.1035 17.2329 17.0496 18.3081 15.7483 18.3081Z" fill="#F5ECE5"/>
<path d="M19.5925 12.8212C20.0473 12.8212 20.416 12.4449 20.416 11.9807C20.416 11.5165 20.0473 11.1401 19.5925 11.1401C19.1378 11.1401 18.7691 11.5165 18.7691 11.9807C18.7691 12.4449 19.1378 12.8212 19.5925 12.8212Z" fill="#F5ECE5"/>
</g>
<defs>
<clipPath id="clip0_260_46">
<rect width="32" height="32" fill="white"/>
</clipPath>
</defs>
</svg>
