<svg width="32" height="32" viewBox="0 0 32 32" fill="none" xmlns="http://www.w3.org/2000/svg">
<g clip-path="url(#clip0_260_62)">
<path d="M16 32C24.8366 32 32 24.8366 32 16C32 7.16344 24.8366 0 16 0C7.16344 0 0 7.16344 0 16C0 24.8366 7.16344 32 16 32Z" fill="#3C4765"/>
<path d="M12.3307 12.4585H9.16907V22.4809H12.3307V12.4585Z" fill="#F5ECE5"/>
<path d="M20.975 12.3604C19.1616 12.3604 18.0267 13.3417 17.8176 14.0286V12.4542H14.2635C14.3104 13.2905 14.2635 22.4766 14.2635 22.4766H17.8176V17.0537C17.8176 16.7508 17.8048 16.4521 17.8944 16.2345C18.1376 15.6329 18.6624 15.0057 19.6054 15.0057C20.8384 15.0057 21.4016 15.9316 21.4016 17.2884V22.4766H24.9899V16.9044C24.9899 13.7982 23.2235 12.3604 20.975 12.3604Z" fill="#F5ECE5"/>
<path d="M10.6923 7.72705C9.52319 7.72705 8.75946 8.47798 8.75946 9.46785C8.75946 10.4577 9.50186 11.2044 10.6453 11.2044H10.6667C11.8571 11.2044 12.5952 10.4364 12.5952 9.46358C12.5739 8.47372 11.8528 7.72705 10.688 7.72705H10.6923Z" fill="#F5ECE5"/>
</g>
<defs>
<clipPath id="clip0_260_62">
<rect width="32" height="32" fill="white"/>
</clipPath>
</defs>
</svg>
