<svg width="32" height="32" viewBox="0 0 32 32" fill="none" xmlns="http://www.w3.org/2000/svg">
<g clip-path="url(#clip0_260_51)">
<path d="M16 32C24.8366 32 32 24.8366 32 16C32 7.16344 24.8366 0 16 0C7.16344 0 0 7.16344 0 16C0 24.8366 7.16344 32 16 32Z" fill="#3C4765"/>
<path d="M23.6117 10.4831C22.9931 10.8585 22.3061 11.1316 21.5723 11.2809C20.9877 10.6409 20.1515 10.2441 19.2299 10.2441C17.4592 10.2441 16.0213 11.7161 16.0213 13.5337C16.0213 13.7897 16.0469 14.0415 16.1024 14.2847C13.4357 14.1481 11.072 12.8383 9.48479 10.8457C9.20746 11.3321 9.04959 11.8996 9.04959 12.5012C9.04959 13.6404 9.61706 14.6516 10.4789 15.2404C9.95413 15.2233 9.4592 15.074 9.02399 14.8308V14.8692C9.02399 16.4649 10.1291 17.7961 11.6011 18.0948C11.3323 18.1716 11.0464 18.21 10.7563 18.21C10.5515 18.21 10.3467 18.1887 10.1504 18.1503C10.56 19.4559 11.7419 20.4073 13.1499 20.4329C12.0533 21.3161 10.6667 21.8409 9.16479 21.8409C8.90453 21.8409 8.64853 21.8239 8.40106 21.794C9.82186 22.7241 11.5072 23.2703 13.3205 23.2703C19.2256 23.2703 22.4512 18.2569 22.4512 13.9049C22.4512 13.7599 22.4512 13.6191 22.4427 13.4783C23.0699 13.0132 23.616 12.4329 24.0427 11.7759C23.4667 12.0361 22.848 12.2153 22.1995 12.2921C22.8608 11.8868 23.3728 11.2383 23.6117 10.4703V10.4831Z" fill="#F5ECE5"/>
</g>
<defs>
<clipPath id="clip0_260_51">
<rect width="32" height="32" fill="white"/>
</clipPath>
</defs>
</svg>
