<svg width="32" height="32" viewBox="0 0 32 32" fill="none" xmlns="http://www.w3.org/2000/svg">
<g clip-path="url(#clip0_260_54)">
<path d="M16 32C24.8366 32 32 24.8366 32 16C32 7.16344 24.8366 0 16 0C7.16344 0 0 7.16344 0 16C0 24.8366 7.16344 32 16 32Z" fill="#3C4765"/>
<path d="M17.0112 18.6366C16.8789 18.6366 16.7466 18.7006 16.6144 18.8286V21.5038C16.7466 21.6361 16.8789 21.7001 17.0112 21.7001C17.2416 21.7001 17.3568 21.5038 17.3568 21.107V19.2339C17.3568 18.8371 17.2373 18.6323 17.0112 18.6323V18.6366Z" fill="#F5ECE5"/>
<path d="M19.9211 18.6367C19.6566 18.6367 19.5243 18.8373 19.5243 19.2469V19.6522H20.3179V19.2469C20.3179 18.8415 20.1856 18.6367 19.9211 18.6367Z" fill="#F5ECE5"/>
<path d="M21.5766 15.6244C21.0774 15.1039 20.5142 15.1039 20.2582 15.0698C18.4192 14.9375 15.663 14.9375 15.663 14.9375H15.6587C15.6587 14.9375 12.9024 14.9375 11.0635 15.0698C10.8075 15.0996 10.2486 15.1039 9.74936 15.6244C9.35682 16.0212 9.22882 16.9215 9.22882 16.9215C9.22882 16.9215 9.09656 17.9754 9.09656 19.0335V20.0234C9.09656 21.0772 9.22882 22.1354 9.22882 22.1354C9.22882 22.1354 9.35682 23.0356 9.74936 23.4282C10.2486 23.9487 10.9056 23.9316 11.1958 23.9871C12.2496 24.0895 15.663 24.1194 15.663 24.1194C15.663 24.1194 18.4235 24.1194 20.2582 23.9828C20.5142 23.953 21.0731 23.953 21.5766 23.4324C21.9691 23.0356 22.0971 22.1396 22.0971 22.1396C22.0971 22.1396 22.2294 21.0815 22.2294 20.0276V19.0378C22.2294 17.9839 22.0971 16.9258 22.0971 16.9258C22.0971 16.9258 21.9691 16.0255 21.5766 15.6287V15.6244ZM11.9894 22.3615H11.1019V17.3012H10.1632V16.4735H12.9408V17.3012H11.9894V22.3615ZM15.1296 22.3615H14.3318V21.8836C14.016 22.2463 13.7131 22.4255 13.423 22.4255C13.167 22.4255 12.9878 22.3188 12.911 22.097C12.8683 21.9647 12.8427 21.7556 12.8427 21.4442V17.9754H13.6406V21.2052C13.6406 21.393 13.6406 21.4911 13.6448 21.5124C13.6662 21.6362 13.7259 21.7002 13.8326 21.7002C13.9947 21.7002 14.1611 21.5764 14.336 21.329V17.9754H15.1339V22.3615H15.1296ZM18.1547 21.0474C18.1547 21.4527 18.1291 21.7428 18.0736 21.9306C17.967 22.2591 17.7536 22.4212 17.4379 22.4212C17.1563 22.4212 16.879 22.2634 16.6144 21.9348V22.3615H15.8166V16.4735H16.6144V18.3978C16.8704 18.082 17.1435 17.9199 17.4379 17.9199C17.7536 17.9199 17.967 18.0863 18.0736 18.4148C18.1291 18.594 18.1547 18.8799 18.1547 19.298V21.0474ZM21.1158 20.3135H19.5243V21.09C19.5243 21.4954 19.6566 21.7002 19.9296 21.7002C20.1259 21.7002 20.2411 21.5935 20.2838 21.3802C20.2923 21.3375 20.3008 21.1583 20.3008 20.8426H21.1115V20.9578C21.1115 21.2138 21.103 21.3887 21.0944 21.4698C21.0688 21.6447 21.0048 21.8068 20.9067 21.9476C20.6848 22.2676 20.3606 22.4255 19.9424 22.4255C19.5243 22.4255 19.2086 22.2762 18.9782 21.9732C18.8075 21.7556 18.7222 21.4058 18.7222 20.9407V19.4047C18.7222 18.9354 18.799 18.594 18.9696 18.3722C19.2 18.0735 19.5158 17.9199 19.9254 17.9199C20.335 17.9199 20.6422 18.0692 20.864 18.3722C21.0304 18.594 21.1115 18.9354 21.1115 19.4047V20.3135H21.1158Z" fill="#F5ECE5"/>
<path d="M13.5595 14.498V12.0874L14.6347 8.55029H13.7301L13.12 10.8842L12.4885 8.55029H11.5499C11.7376 9.10069 11.9339 9.65536 12.1216 10.21C12.4075 11.0378 12.5867 11.665 12.6677 12.0916V14.5023H13.5595V14.498Z" fill="#F5ECE5"/>
<path d="M15.6544 14.5621C16.0555 14.5621 16.3712 14.4085 16.5931 14.1098C16.7637 13.8879 16.8448 13.5381 16.8448 13.0687V11.5157C16.8448 11.0421 16.7637 10.6965 16.5931 10.4746C16.3712 10.1717 16.0555 10.0181 15.6544 10.0181C15.2533 10.0181 14.9376 10.1674 14.7157 10.4746C14.5451 10.6965 14.464 11.0463 14.464 11.5157V13.0687C14.464 13.5423 14.5451 13.8922 14.7157 14.1098C14.9376 14.4127 15.2491 14.5621 15.6544 14.5621ZM15.2704 11.3535C15.2704 10.9439 15.3941 10.7391 15.6544 10.7391C15.9147 10.7391 16.0384 10.9439 16.0384 11.3535V13.2181C16.0384 13.6277 15.9147 13.8325 15.6544 13.8325C15.3941 13.8325 15.2704 13.6277 15.2704 13.2181V11.3535Z" fill="#F5ECE5"/>
<path d="M19.7717 14.498V10.0649H18.9696V13.4527C18.7904 13.7044 18.624 13.8281 18.4618 13.8281C18.3552 13.8281 18.2912 13.7641 18.2741 13.6404C18.2656 13.6148 18.2656 13.5167 18.2656 13.3289V10.0649H17.4634V13.5721C17.4634 13.8836 17.489 14.0969 17.536 14.2292C17.617 14.4511 17.7962 14.5577 18.0565 14.5577C18.3466 14.5577 18.6538 14.3785 18.9738 14.0116V14.4937H19.776L19.7717 14.498Z" fill="#F5ECE5"/>
</g>
<defs>
<clipPath id="clip0_260_54">
<rect width="32" height="32" fill="white"/>
</clipPath>
</defs>
</svg>
